<svg xmlns="http://www.w3.org/2000/svg" viewBox="0 0 257.37 57.24">
  <g id="Layer_2" data-name="Layer 2">
    <g id="Layer_1-2" data-name="Layer 1">
      <g>
        <path d="M19.81,6.6a2.08,2.08,0,0,0-2.2-2.2h-4.4A2.08,2.08,0,0,0,11,6.6V8.81h8.8Z" fill="#010101"/>
        <path d="M61.64,6.6a2.08,2.08,0,0,0-2.2-2.2H55a2.08,2.08,0,0,0-2.2,2.2V8.81h8.8Z" fill="#010101"/>
        <path d="M44,48.44A13.21,13.21,0,1,0,30.82,35.23,13.25,13.25,0,0,0,44,48.44Z" fill="#010101"/>
        <path d="M61.64,13.21H8.81A8.83,8.83,0,0,0,0,22v2.2H30.38A17.77,17.77,0,0,1,44,17.61a17.41,17.41,0,0,1,13.65,6.61H70.45V22A8.83,8.83,0,0,0,61.64,13.21Z" fill="#010101"/>
        <path d="M61.64,35.23a17.6,17.6,0,1,1-33.9-6.61H0V48.44a8.83,8.83,0,0,0,8.81,8.8H61.64a8.83,8.83,0,0,0,8.81-8.8V28.62H60.32A16.09,16.09,0,0,1,61.64,35.23Z" fill="#010101"/>
        <path d="M42.93,2.86A4.3,4.3,0,0,0,38.75,0h-7a4.3,4.3,0,0,0-4.18,2.86l-2.2,6H45.13Z" fill="#010101"/>
      </g>
      <g>
        <path d="M85.12,51.56a11.21,11.21,0,0,0-1.23-.11,5,5,0,0,0-.78-.11c-.11,0-.17,0-.23-.06a1.11,1.11,0,0,0-.72-.56s-.06-.28,0-.28c.28-.22.56-.39.84-.61-.06.28,0,.39.33.39H84a2.57,2.57,0,0,0-.44-.39c-.06-.06-.12-.06-.23-.11s-.22,0-.33.16c0-.5-.12-.84-.62-1-.28-.12-.22-.4-.28-.62s.17-.22.34-.28h.22a10.37,10.37,0,0,0,1.85,0h.73s.11,0,.11.06c.11.28.33.16.5.11.34-.11.62-.34.84-.34s.23-.28.45-.17.34,0,.5,0,.4-.06.56-.11a.38.38,0,0,0,.28-.17.49.49,0,0,1,.4-.06,1.49,1.49,0,0,0,.22,0c.06-.34.28-.17.5-.23s.45,0,.56-.17a.35.35,0,0,1,.34-.16,10.63,10.63,0,0,0,1.23-.23,1,1,0,0,0,.45-.11,7.06,7.06,0,0,1,.73-.28l2.07-.5c.39-.17.78-.28,1.18-.45a1.81,1.81,0,0,0,.56-.06.37.37,0,0,0,.22,0,5.31,5.31,0,0,1,1.57-.62c.5-.17.95-.39,1.45-.61a15.59,15.59,0,0,1,1.74-.85c.17-.05.34-.28.56-.28s.39-.16.56-.22.39-.34.62-.45a14.35,14.35,0,0,0,1.45-1.12,2.31,2.31,0,0,0,.67-.84c.06,0,.06-.28.06-.45s-.11-.16-.17-.28.06-.16.11-.22,0-.06,0-.06a5.3,5.3,0,0,0-.9-.39c-.17,0-.45.17-.33-.28h-.17a2.7,2.7,0,0,0-.39.06c-.28-.39-.73-.23-1.12-.39-.06-.06-.28-.06-.34-.06-.22.22-.39.06-.56,0a4,4,0,0,1-1.12-.17,4.9,4.9,0,0,1-1.06-.17.41.41,0,0,1-.23-.11c-.17-.22-.45-.17-.61-.22a2.86,2.86,0,0,1-1.4-.23h-.12a1.48,1.48,0,0,1-1-.11c-.17,0-.34,0-.51-.11l-3.36-.67c-.61-.06-1.17-.23-1.79-.28-.11,0-.11-.06-.06-.17a.53.53,0,0,1-.16-.06c-.34.28-.68,0-1,0s-.51,0-.67-.22c-.34.11-.4-.17-.62-.22s-.5-.06-.73-.12-.11,0-.17,0a4,4,0,0,0-1-1,1.49,1.49,0,0,1-.56-1.46c.06-.05,0-.28-.11-.39-.34-.33-.34-.5-.11-.84s.39-.33.22-.61a.06.06,0,0,1,.06-.06c.11,0,.17.06.17.11,0-.11,0-.22-.12-.22s-.16-.11-.33-.11a2,2,0,0,0,.28-.34.91.91,0,0,0,.22-.22c.11-.17.17-.17.34-.11a.72.72,0,0,0,.33,0c.12-.06.17-.12.06-.23a.57.57,0,0,1-.11-.34c-.06,0,0-.05,0-.05.39-.17.33-.67.73-.84s.61-.39,1-.5c.12-.12.28.05.45-.06s.06-.28.11-.34.17-.11.28-.17c.56-.22,1.12-.5,1.68-.72s1-.4,1.46-.56a12.63,12.63,0,0,0,1.46-.56c.16-.12.33,0,.5-.17a1.44,1.44,0,0,1,.5-.28,2.26,2.26,0,0,0,.56-.17,1.4,1.4,0,0,0,.51-.28.63.63,0,0,1,.17.06.41.41,0,0,1,.22.11v-.17c.11-.11.22-.22.28-.22,1-.34,1.79-.84,2.74-1.12a7.24,7.24,0,0,0,1.24-.51c.11-.11.28-.22.44,0,.06.06.23.06.23.06h.28v-.06h-.17c-.06,0-.06,0-.11.06a.83.83,0,0,1,.45-.45c.56-.34,1.12-.62,1.68-.9.84-.33,1.68-.72,2.46-1.12a12.31,12.31,0,0,0,1.46-.84,1.61,1.61,0,0,1,1.12-.05,3.05,3.05,0,0,1,.78.33,2.5,2.5,0,0,0,1.06.28c.17,0,.17.06.17.17a5.55,5.55,0,0,1,.28,2.13,4.09,4.09,0,0,1-.11,1.23c0,.11-.06.11-.11.17-.17.28-.45.56-.62.84a3.36,3.36,0,0,1-1.29.9,1.33,1.33,0,0,1-1.12.33s-.11.06-.16.06A26.74,26.74,0,0,1,104,27.09l-2,.84a1.56,1.56,0,0,1-.5.11.43.43,0,0,0-.23.12,5.91,5.91,0,0,1-1.73.72,5,5,0,0,0-1.24.51c0,.05,0,.05-.11.05-.56-.05-1,.45-1.57.62a10.69,10.69,0,0,0-1.68.67,5.41,5.41,0,0,0-.78.23c-.17,0-.22.11-.06.28a1,1,0,0,0,.62.39c1.57.45,3.19.56,4.76.95.73.17,1.51.39,2.24.5a18.49,18.49,0,0,1,3.14,1c.61.16,1.17.28,1.79.5.45.11.67.45,1.12.45,0,0,0,.11,0,.17.17.11.23.28.45.28.06,0,.17,0,.17.05a.58.58,0,0,0,.5.39c.17,0,.45.45.4.56-.23.4.05.79.11,1.12a2.42,2.42,0,0,0,.22.62c0,.06.11.11.17.17a.49.49,0,0,1,.11-.23V38c0-.12.06-.28.06-.45.05.17.17.28.17.39,0,.45.22.9-.06,1.29-.06.05,0,.28.06.39a3.79,3.79,0,0,1-.06,1.74,7.68,7.68,0,0,1-1.4,2.57c-.28.28-.62.62-1,.9s-.67.56-1.07.84a11.24,11.24,0,0,1-1.34.84c-.28.22-.56.39-.9.61a11.55,11.55,0,0,1-2.29,1.12,6.68,6.68,0,0,1-1.51.56c-.06,0-.12.12-.23.12-.45.22-1,.39-1.4.56-.28.11-.67.11-.84.22a2.41,2.41,0,0,1-.78.34,5.72,5.72,0,0,1-1.18.28c-.11,0-.17,0-.28.11a2.19,2.19,0,0,1-.84.22,13.53,13.53,0,0,0-1.34.39,2.72,2.72,0,0,1-1.35.12h-.22L90,51.45a1.75,1.75,0,0,0-.56.06,7.7,7.7,0,0,0-1.12.11,8.94,8.94,0,0,1-2.13.06A7,7,0,0,1,85.12,51.56ZM86,30.17a.18.18,0,0,1,0-.11l-.17.17a.05.05,0,0,1,.06.05A.26.26,0,0,0,86,30.17Zm1.85,18.37c0-.06-.17-.06-.22-.11s0,.11-.06.11.11.11.17.11S87.76,48.65,87.81,48.54ZM90.5,27.2c-.11-.05-.22-.11-.22-.22s-.12.06-.12.11.12.11.17.17A.25.25,0,0,1,90.5,27.2ZM104,42.38c-.06,0-.12-.06-.23-.11a.18.18,0,0,0,0,.11c.11,0,.22,0,.22.06A.06.06,0,0,0,104,42.38Zm5.6-5.54c0-.06.05-.11.11-.17A1.37,1.37,0,0,0,110,37l-.23.12C109.76,37,109.65,37,109.6,36.84Z" fill="#231f20"/>
        <path d="M119.4,53.58c0-.06,0-.22,0-.28s-.06-.17-.12-.17-.11,0-.17.11-.11.12-.16.12l-.06-.12c.06-.39-.33-.61-.33-1-.06-.12-.12-.23-.28-.12a.6.6,0,0,1-.34.12c-.06,0-.17-.06-.17-.12a.53.53,0,0,1,.06-.22c.39-.06.28-.34.28-.5a9.7,9.7,0,0,1-.23-1.29,9.59,9.59,0,0,0,0-1.79,3.16,3.16,0,0,0-.17-.79c0-.05-.06-.17-.06-.22.12-.23.45-.34.17-.62.06-.22.23-.45.28-.67s.06-.33.11-.5c.34-1,.51-1.91.9-2.75.11-.22.11-.56.34-.73-.17-.33.11-.56.22-.84a1.19,1.19,0,0,1,.22-.61c.23-.67.45-1.23.68-1.79a9.91,9.91,0,0,1,.72-1.57,10.28,10.28,0,0,0,.39-1c.23-.45.45-.84.68-1.29a1.41,1.41,0,0,1,.45-.39c.11-.11.22-.22.11-.39a.61.61,0,0,1,.11-.51,3.85,3.85,0,0,1,.34-.67,17.16,17.16,0,0,0,.84-2c0-.17.11-.23.16-.34.23-.28.4-.73.73-.89a.21.21,0,0,1,.06-.12.91.91,0,0,1,.33-.84,21.32,21.32,0,0,1,1.46-2.35,9.16,9.16,0,0,1,1.46-1.9c.16-.45.61-.68.67-1.12.05-.12,0-.28-.11-.17-1,.39-2.13.45-3.2.78a2.18,2.18,0,0,1-.84.06,1.87,1.87,0,0,1-.78-.28.16.16,0,0,0-.06-.11h.06a.63.63,0,0,0,.62-.12l-.06-.11a.44.44,0,0,0-.56.23c-.17.33-.11.33.17.33h.11c.06,0,.11.11.17.11s-.11.12-.17.12l-.06.05c-.67.17-1.45.4-2.24.62a1.39,1.39,0,0,0-.67.17c-.28.05-.5.11-.84.16a3.06,3.06,0,0,0-.84.28,20.42,20.42,0,0,1-2,.4,3.06,3.06,0,0,0-.9.28,7.36,7.36,0,0,1-1.23.33,2.31,2.31,0,0,0-.39.17,16.44,16.44,0,0,1-2.36.67c-.11-.05-.16-.17-.28-.22a.58.58,0,0,0-.28.05c-.22.62-.72.68-1.23.84a4.55,4.55,0,0,1-1.23.28,3.21,3.21,0,0,1-.73.06c-.11.06-.39-.11-.22.22a3.13,3.13,0,0,1-.67.23c-.06.05-.17-.11-.23-.11a.58.58,0,0,0-.22-.17v.22c0,.06,0,.17-.06.17-.22-.06-.39.22-.61.06-.06-.06-.23.05-.28.05s-.4.34-.56-.05c-.06,0-.06-.06-.06,0-.45.28-.67-.4-1.06-.28-.06,0-.06-.12-.06-.23v-.33c.06-.23.06-.34-.22-.34a.29.29,0,0,1-.23-.28c0-.11,0-.17,0-.22s-.12-.34,0-.4.45-.16.17-.44,0-.4.22-.45a.49.49,0,0,0,.23-.11.72.72,0,0,1,.73-.4.57.57,0,0,0,.56-.28,1.26,1.26,0,0,1,.33-.22c.51-.11,1-.33,1.57-.45a.05.05,0,0,1,.06-.05c.61.11,1-.4,1.45-.62.06,0,.11-.11.11-.11.06-.28.23-.23.45-.23s.34.06.39,0c.34-.39.84-.33,1.23-.44a.55.55,0,0,0,.34-.12,1.65,1.65,0,0,1,.84-.33.2.2,0,0,0,.17-.06c.17-.39.45-.28.78-.22.17.05.34.05.39-.17a.53.53,0,0,1,.06-.22,1.81,1.81,0,0,1,.56-.23.71.71,0,0,0,.79-.22,2.08,2.08,0,0,1,1.45-.67c.11,0,.17,0,.23-.06s.33-.05.44-.05.51.16.51-.23a.11.11,0,0,1,.11-.11c.78-.23,1.51-.34,2.24-.51a15,15,0,0,1,1.46-.39c0-.05.16-.05.28-.11a15.9,15.9,0,0,0,2.18-.5,8.28,8.28,0,0,1,1.17-.28c.51-.17,1-.28,1.52-.45h.05c.68,0,1.12-.39,1.8-.28.22.05.5-.17.78-.28.11,0,.11-.11.17-.11a5.5,5.5,0,0,0,1.62-.34c.11,0,.11-.06.17,0,.28.17.5.11.62-.17,0-.05,0-.05.11-.05a14.48,14.48,0,0,0,1.57-.34c.55-.22,1.11-.22,1.62-.39.67-.23,1.34-.28,2-.45s1.17-.28,1.84-.5a13,13,0,0,0,1.35-.28h.11c.39-.34.95-.28,1.34-.45a18.27,18.27,0,0,1,2.3-.62c.06,0,.17,0,.28,0s.22,0,.22,0c0-.23.23-.23.39-.28.51-.17,1-.34,1.57-.51.17-.05.28.11.34.17s.28.11.22-.06.17-.28.34-.33c.67-.23,1.34-.51,2.07-.73a2.67,2.67,0,0,1,2,.34c.28.16.56.22.73.56a2.66,2.66,0,0,1,.28.56c.11.44.28.89.39,1.34a2.18,2.18,0,0,1-.17,1.68,2.31,2.31,0,0,1-.5.78,3.9,3.9,0,0,1-1.57.9c-.67.22-1.4.45-2.13.62-.28.11-.56-.06-.84,0s-.44.34-.84.34a4.1,4.1,0,0,0-1.06.22l-3.86,1c-.17.06-.34,0-.45.06a2.54,2.54,0,0,0-1.12.28,4.4,4.4,0,0,1-1.46.28c-.11.05-.28.05-.34.16-.27.06-.56.28-.89.06,0-.06-.06-.06-.17,0a6.17,6.17,0,0,1-1.12.22.48.48,0,0,0-.39.4l-.11.22a.63.63,0,0,0,0,.9,1.12,1.12,0,0,1,0,1.12,3.51,3.51,0,0,1-1.34,1.51c-.51.45-1,.84-1.51,1.29a4.5,4.5,0,0,0-.73.78,22.23,22.23,0,0,0-3,4.26c-.29.39-.51.84-.79,1.23a.29.29,0,0,1-.22.11c-.06,0-.23-.06-.28-.06a.17.17,0,0,0-.11.06v.06l.11.11c.22,0,.22.17.11.33-.28.4-.39,1-.84,1.29.06.51-.28.23-.39.23h-.11a.8.8,0,0,0-.4.84v.5a.2.2,0,0,1-.22.22c-.06,0-.17.17-.17.23,0,.22.06.39-.22.28-.06,0-.17.17-.17.22s.17.39-.11.45c-.06,0-.17.17-.11.22.16.29-.06.45-.17.62-.28.45-.62.9-1,1.4s-.51,1.06-.73,1.57a1.93,1.93,0,0,0-.23.61c-.28.51-.56,1.13-.84,1.63a.56.56,0,0,0,0,.28,8.16,8.16,0,0,1-.9,2.29c0,.06,0,.17,0,.28a1.64,1.64,0,0,1-.22.68.48.48,0,0,0-.17.33,2.39,2.39,0,0,1-.17.62c0,.22-.11.45-.17.67a1.15,1.15,0,0,1-.33.62,1.45,1.45,0,0,0-.28.89c0,.06,0,.23,0,.28s-.06.11-.12.17a.31.31,0,0,1-.11-.22s0-.12,0-.23a.36.36,0,0,0-.61,0,.24.24,0,0,0,0,.28,1.39,1.39,0,0,1,.22,1.12.5.5,0,0,0,.06.39.25.25,0,0,1-.23.28c-.5,0-.5,0-.56.45v.44c0,.23-.16.23-.22.12A.51.51,0,0,1,119.4,53.58Zm-12.55-26c0-.12-.17-.17-.22-.23s-.23.06-.23.11a1.92,1.92,0,0,1,.23.51c0,.05.17.05.17.05C106.85,27.88,106.91,27.71,106.85,27.6Zm1.79-.34a1.82,1.82,0,0,0-.5-.11.2.2,0,0,1-.17-.06,3.17,3.17,0,0,0-.39.23c.17.05.22.05.39.11v.05A3.74,3.74,0,0,1,108.64,27.26Zm.68-.11a2.5,2.5,0,0,1,.39-.17c.17-.06.33-.17.56-.06s.45-.16.61-.33,0-.11,0-.17h-.11a7.66,7.66,0,0,0-.89.22.24.24,0,0,0-.17.34c-.17,0-.28-.06-.39,0s-.12.11-.23.17Zm.89-2-.11-.06c-.28,0-.28.17-.28.28s.06.11.11.17C110,25.47,110.1,25.36,110.21,25.19Zm-.22-2c.11-.06.17-.11.22-.11h.06l-.17.16C110,23.28,110,23.28,110,23.23Zm.84-.28a.19.19,0,0,1,.17-.06s0,0,0,.06-.11.05-.17.05A0,0,0,0,0,110.83,23Zm2,3.25a1.52,1.52,0,0,1,.78-.23c.34,0,.45-.16.67-.39v-.11h-.11a2.28,2.28,0,0,0-1.23.28.87.87,0,0,1-.5.06c-.23,0-.34.05-.4.22s.17.28.4.28S112.68,26.25,112.79,26.2Zm0,1.17h-.06a.4.4,0,0,1-.28.11A.9.9,0,0,1,112.79,27.37Zm2.63-2.07c.17-.11.34.28.5.06.12-.06.17-.12.23-.12s.33-.16.5-.28a.37.37,0,0,0,.11-.27,1.08,1.08,0,0,1-.22-.17c-.17.17-.34.17-.5.28a.49.49,0,0,1-.23.11c-.22.05-.61-.11-.67.39h-.28c-.06,0-.11.06-.17.06s.11.16.17.16.06.06.11.06C115.2,25.58,115.25,25.36,115.42,25.3Zm1.51-3.81c-.05,0-.05,0-.05-.11a.21.21,0,0,1-.17.06v0Zm.45.9a.17.17,0,0,0-.06-.11c-.16,0-.22,0-.33,0s-.06.11-.06.11A.34.34,0,0,0,117.38,22.39Zm.22,2.24a.35.35,0,0,1,.45-.17s.17,0,.23-.06a2.31,2.31,0,0,1,1.45-.39.7.7,0,0,0,.34-.05c.11,0,.17-.12.22-.17s-.11-.23-.17-.23h-.67a3.63,3.63,0,0,1-.78.17,2.31,2.31,0,0,0-.79.45,2.55,2.55,0,0,0-.56.17.22.22,0,0,0-.16.22.37.37,0,0,0,.22.12C117.44,24.69,117.6,24.69,117.6,24.63Zm.45-1.23c0-.06,0-.06-.11-.06a.16.16,0,0,0-.11.06.19.19,0,0,0,0,.11C117.94,23.45,118,23.4,118.05,23.4Zm.9,24.24a1,1,0,0,1,.28-.11s0-.11.11-.22c-.17,0-.28-.11-.39-.11a.36.36,0,0,0-.34.28v.28C118.72,47.7,118.84,47.7,119,47.64Zm.61-1.62a1.82,1.82,0,0,1-.22-.28.25.25,0,0,1-.06.17.9.9,0,0,1,.17.28C119.51,46.13,119.56,46.08,119.56,46Zm1,4.42s0-.16-.11-.22-.11-.22.06-.39a1.25,1.25,0,0,0,.11-.23,1,1,0,0,0-.39-.05c-.06,0-.06.17-.12.22a.53.53,0,0,0-.16.06.19.19,0,0,0-.34,0,.75.75,0,0,0-.28.33l.06.06c.33-.11.5.11.67.22s.11.12.17.12S120.46,50.5,120.57,50.44Zm-.89-29.56c-.06,0-.12-.06-.17-.06a.17.17,0,0,0-.11.06.12.12,0,0,0,.11.11C119.56,21,119.62,20.93,119.68,20.88Zm.56,24.69h.05c.06-.17,0-.22-.17-.22a.46.46,0,0,0-.22,0c.06-.11.17-.11.17-.16a2.18,2.18,0,0,1,.17-.4c-.12.06-.17.17-.28.23s-.23.17-.06.28c0,.11-.06.22,0,.28s.17.33.22.33C120.4,46,120.07,45.69,120.24,45.57Zm-.17-2.69v-.05l-.11.11a.22.22,0,0,1,.05.11A.19.19,0,0,0,120.07,42.88Zm.84-19.32a.62.62,0,0,1-.17-.11,1.37,1.37,0,0,0-.28.17l.06.11C120.63,23.68,120.74,23.56,120.91,23.56Zm-.17,20.22c0-.05,0-.05-.06-.05s-.05.05-.11.11l.11.11C120.68,43.89,120.74,43.84,120.74,43.78Zm.33,3.81a.16.16,0,0,0-.11-.06c0,.06,0,.11-.11.23s.11,0,.11.05S121,47.7,121.07,47.59Zm.79-24.42c-.11-.05-.17-.11-.23-.11a.17.17,0,0,1-.11.06c.06.05.11.16.17.22Zm.56-1.45a.88.88,0,0,1-.22-.17h-.06c0-.17.17-.34-.06-.45a1.88,1.88,0,0,0-.5.11v.11l.39.23a.2.2,0,0,0,.17-.06c0,.17.06.28.22.28C122.36,21.77,122.42,21.77,122.42,21.72Zm1.29,1.4c-.06-.17-.28-.28-.06-.45a.2.2,0,0,1,.06-.17c-.06,0-.06,0-.17-.06s-.34.17-.56.23a1,1,0,0,0-.34.11,4.63,4.63,0,0,1-.56.11s0,.06,0,.06,0,.11.11.17c.28.11.62-.23.84,0,.22-.23.45-.06.67.05,0,.06,0,.06.06.06Zm-.9,14.67c0-.28-.17-.51-.28-.45s-.28.22-.45.34l.62.16C122.76,37.9,122.76,37.79,122.81,37.79Zm.56-.79c0-.5-.22-.67-.73-.67-.11.06-.28.11-.22.23s.11.22.17.33a2.39,2.39,0,0,0,.56.17S123.32,37,123.37,37Zm-.28-16.57c.06,0,0-.06,0-.06s-.06-.05-.06-.05a5.13,5.13,0,0,0-.34.56h.17ZM122.81,42c0-.06,0-.06,0-.11a.22.22,0,0,1-.12,0l.12.11Zm.39-20.22c0-.05-.11-.17-.16-.22a.4.4,0,0,0-.12.22s.06.11.12.11A.26.26,0,0,0,123.2,21.77ZM124,39c0-.05-.06-.05-.11-.05V39C123.93,39,123.93,39,124,39Zm1.62-7.44c.06,0,0-.06,0-.12a.21.21,0,0,0-.17.06c0,.06,0,.11,0,.11s-.17-.17-.28-.22-.06,0-.06,0l.34.17c0,.06,0,.06,0,.12S125.56,31.63,125.61,31.52Zm.56-9.52c.06,0,.06,0,.11-.06s-.17-.11-.17-.11a2.93,2.93,0,0,1-.72.17h-.06c0,.05,0,.11.06.11s.17.05.33.05A.88.88,0,0,0,126.17,22Zm-.45-1.74a.05.05,0,0,0,0-.06c0-.05-.11,0-.11,0s0,.12.11.23C125.67,20.32,125.72,20.32,125.72,20.26Zm.28,2.41s0,0-.11-.06-.11.06-.17.06l.12.11A.26.26,0,0,0,126,22.67Zm1.68,13.27c0-.17.12-.28.23-.5,0,.22,0,.39,0,.56s0,.28-.22.22S127.68,36.05,127.68,35.94Zm1.4-13c-.05-.06-.05-.06-.05-.11s-.11.05-.23.05c.17.06.23.11.23.17A.22.22,0,0,0,129.08,23Zm.45-1.51a.19.19,0,0,0,.06-.12v-.11c-.11-.11-.28-.28-.11-.33s.28-.06.44-.06.28.06.45.28l.22.11v-.28c-.05-.39-.11-.39-.5-.28h-.17a3,3,0,0,0-.44-.11l-.34.11c-.17.12-.11.34-.22.45.11,0,.16.11.28.11s.16.11.11.17-.28.22-.06.34S129.48,21.55,129.53,21.44Zm1.79-.45c.17-.17.4-.34.28-.56,0,0-.11-.11-.16-.11-.23,0-.34.16-.45.33s.11.39.28.34Zm4.48-1.29c-.05-.06-.05-.17-.17-.17a1.09,1.09,0,0,0-.39-.11,4.64,4.64,0,0,0-.61.22c-.06,0-.06.06-.11.12h.11c.28,0,.61-.17.89.11A1.14,1.14,0,0,0,135.8,19.7Zm.45-.22c0-.06-.05-.12-.05-.17a.4.4,0,0,0-.06.22h.06A0,0,0,0,0,136.25,19.48Zm.84.05c0-.05-.06-.11-.22-.22v.22a.17.17,0,0,0,.11.06A.21.21,0,0,0,137.09,19.53Zm.39-2.69-.16-.05c-.12,0-.17.05-.23.05s0,.12.06.12A2.38,2.38,0,0,1,137.48,16.84Zm.73,2.47a2.23,2.23,0,0,1,1.12-.45.85.85,0,0,0,.45-.17v-.22h-.17c-.67.11-1.23.61-2,.5a.29.29,0,0,0-.22.11c-.06,0-.11.12-.11.17s.05.06.16.06.23.05.34.11S138.1,19.36,138.21,19.31Zm2.24-.84c.23.28.34-.17.51-.11s.16-.12.16-.17-.11-.23-.22-.11-.45.22-.73.33l-.06.06a.22.22,0,0,1,.12.05A.46.46,0,0,0,140.45,18.47Z" fill="#231f20"/>
        <path d="M141.29,48.15,140.17,48c-.17-.06-.39-.11-.62-.17-.05-.05-.16-.05-.22-.11s-.11-.22-.28-.11c0,0-.11,0-.11-.06-.17-.28-.62-.45-.73-.84,0,0-.11-.11-.17-.17a.17.17,0,0,1,0-.11c-.06-.22-.12-.22-.23-.17s-.11-.05-.17-.05c0-.23.06-.34-.11-.45s-.11-.11-.11-.17a2.26,2.26,0,0,0-.67-1h-.06c.06-.45-.33-.62-.39-.89a2.77,2.77,0,0,0-.05-.29c-.06-.16-.23-.28.05-.33.11,0,.11-.23.17-.34h-.06c-.11.11-.22,0-.33,0s-.06-.17-.12-.17.12-.16.23-.22h.17a2.5,2.5,0,0,0-.17-.39c-.06,0-.06,0-.11,0s-.06.12-.12.12,0-.12,0-.23a.18.18,0,0,0,0-.11.83.83,0,0,0,0-.34c0-.16-.11-.28.11-.39s.23-.05.11-.22-.05-.06-.05-.17a5,5,0,0,0,.17-.84c0-.28.33-.39.16-.73a1.34,1.34,0,0,1,.11-.17c.06-.16.12-.39.17-.56v-.22a8.45,8.45,0,0,1,.39-1.06,4.89,4.89,0,0,1,.4-.79c.22-.33.39-.73.61-1.12.17-.17.17-.45.51-.5,0,0,0-.17,0-.17,0-.17,0-.17.06-.17a.05.05,0,0,0,.06,0c-.06-.28.33-.45.27-.73.23,0,.23-.28.4-.39a.18.18,0,0,0,.16-.17.29.29,0,0,1,.23-.28.21.21,0,0,0,.11-.06c-.06-.39.28-.56.45-.78s.67-.73.95-1.12a9.16,9.16,0,0,1,1.23-1.35l1.07-.78c0-.06,0-.11.11-.06a.34.34,0,0,0,.33-.28c.06-.16.23-.33.28-.5s.34,0,.4.17,0,.05.11.11a.05.05,0,0,0,.05-.06c.06,0,.06-.11,0-.16-.16-.34-.16-.45.12-.68a1,1,0,0,0,.44-.22.38.38,0,0,0,.56-.28c.06-.11.06-.17.12-.22a1.66,1.66,0,0,0,.61-.23c.23-.33.56-.39.84-.56l.67-.33c.28-.17.51-.28.79-.45a.32.32,0,0,0,.17-.28c.05-.06.05-.17.11-.17l.67-.17H150a1.81,1.81,0,0,1,.78-.22,3.4,3.4,0,0,0,.62-.11,3.85,3.85,0,0,1,1.56-.23,1.26,1.26,0,0,0,.79-.05c.11-.06.28.11.39.11a7.42,7.42,0,0,1,1.23.17,1.47,1.47,0,0,1,.95.61c.12.23.34.34.51.51s.33.5.5.73.11.44.28.67a1,1,0,0,1-.17.95,5.2,5.2,0,0,0-.33.78,3.63,3.63,0,0,1-.62.73.22.22,0,0,0-.22.11.77.77,0,0,0-.17.45,1,1,0,0,0-.11.56,1.39,1.39,0,0,0,0,.67.17.17,0,0,1,0,.11c-.06,0-.11,0-.11.06s.11.06.11.06c0,.22,0,.44.11.67A.33.33,0,0,1,156,32s-.05.12,0,.12c.17.33,0,.67,0,1v.28c0,.11.11.33-.05.39s-.06.06-.06.11c.06.34-.28.56-.34.95a.72.72,0,0,1-.11.34c-.05.06,0,.11,0,.22a.49.49,0,0,1,.06.28c0,.06,0,.06-.06.12s-.05.22-.05.33c-.12,0-.17-.17-.28-.17s-.17.17-.17.17c0,.17-.11.34.11.51s0,.33-.06.44-.16.06-.16.17a1.75,1.75,0,0,1-.34.73,5.83,5.83,0,0,0-.39.9v.05c-.39.17-.28.62-.51.9s-.33.56-.56.84a6.92,6.92,0,0,1-.61.78,3.93,3.93,0,0,1-.45.67.86.86,0,0,1-.28.34c-.17.22-.39.45-.56.67s-.28.39-.45.45-.11.23-.17.23a.51.51,0,0,0-.27.33c-.06.11-.29.11-.4.17a0,0,0,0,0-.05.05c.16.12-.06.17-.12.28l-1,.84a5.35,5.35,0,0,1-.73.45,3.76,3.76,0,0,0-.51.34,2.16,2.16,0,0,1-.5.33c-.34-.33-.22.12-.34.17a3.73,3.73,0,0,1-.61.34,1.73,1.73,0,0,0-.9.33c0,.06-.17,0-.22.06l-.34.17a2,2,0,0,0-.5.17c-.28.05-.51.16-.78.22a3.66,3.66,0,0,1-.79.11,2.54,2.54,0,0,0-.67.06A.69.69,0,0,1,141.29,48.15Zm-1.23-6.5c.11,0,.17-.17.28-.17v0a.17.17,0,0,1-.11-.06.51.51,0,0,1-.23.23.21.21,0,0,0,.06.11h.05A.05.05,0,0,1,140.06,41.65Zm1.73.56c.34-.11.34-.17.56,0h.06A2.13,2.13,0,0,0,143,42a1,1,0,0,0,.39-.11h.28a.46.46,0,0,1,.22,0c.17,0,.28,0,.34-.12s0,0,.05-.11c.34-.17.62-.39,1-.56l1-.5c.17-.11.23-.23.4-.28a1,1,0,0,1,.28-.17,3,3,0,0,1,.28-.22c.16-.23.45-.4.61-.62a8.51,8.51,0,0,0,.67-.84c.12-.11.23-.28.34-.39a5.59,5.59,0,0,0,.39-.62c.11-.17.28-.33.39-.5s.17-.51.51-.39c0,0,.11,0,.11-.06a2.6,2.6,0,0,1,.22-.56c.06-.06.06-.11.12-.17s0,.11.11.11-.06-.11-.06-.16l.06-.06c.28-.5.5-1.06.73-1.57,0-.17,0-.28.22-.22V33.7a.38.38,0,0,0-.06-.22c0-.34.28-.56.28-1,0-.22.23-.44.29-.67V31.8c-.23-.17,0-.23,0-.34s.11-.06.11-.17-.17-.33,0-.45a2,2,0,0,0,0-.56.59.59,0,0,0-.17-.05,9.5,9.5,0,0,0-1.07.28c-.28,0-.5.17-.72.22a.2.2,0,0,1-.17.06c-.51.28-.95.56-1.46.84-.33.22-.61.45-.89.67s-.23.28-.4.34-.33.33-.56.44a7.08,7.08,0,0,0-.89.84l-.9.9c-.33.39-.56.73-.84,1.06a6.23,6.23,0,0,0-1.06,1.4c-.28.45-.56.84-.84,1.29-.06.12-.06.23-.11.34-.12.28-.28.56-.4.78-.16.39-.22.79-.39,1.18a2.92,2.92,0,0,1-.16.61c-.12.23,0,.45-.06.68a.05.05,0,0,0,.06.05A1.69,1.69,0,0,0,141.79,42.21Z" fill="#231f20"/>
        <path d="M156.86,50.67a.38.38,0,0,1-.34-.23c-.17-.56-.67-.89-1-1.34a4.1,4.1,0,0,1-.72-1.34,1.92,1.92,0,0,0-.23-.45,1,1,0,0,1-.17-.9c.06,0,.06-.11.06-.17a3.46,3.46,0,0,1,.11-1.84,17.72,17.72,0,0,1,1.51-4.15,19.33,19.33,0,0,1,1.29-1.9c.06-.17.17-.39.23-.56a13.15,13.15,0,0,0,1.17-1.4,9.61,9.61,0,0,0,.73-.9,2.22,2.22,0,0,1,.45-.56.62.62,0,0,1,.11-.17c.5-.22.67-.78,1-1.12a13.78,13.78,0,0,0,1.23-1.28,2.51,2.51,0,0,1,.45-.17c.11-.06.17-.11,0-.17a.59.59,0,0,1,0-.17c.28-.28.56-.5.84-.78a5.47,5.47,0,0,1,.73-.79,4.18,4.18,0,0,1,.9-.84c.39-.16.61-.56,1-.84a5.14,5.14,0,0,0,.62-.56c.5-.39.95-.78,1.45-1.17.17-.17.39-.23.56-.39a1.2,1.2,0,0,0,.45-.23,1.53,1.53,0,0,1,1-.44h.11c0-.06-.11-.06-.11-.12s-.11-.05-.17-.05.06-.06.12-.06a1,1,0,0,1,.39-.28c.17-.11.33-.39.67-.17.11.11.22,0,.22-.22a.44.44,0,0,1,.45-.39.68.68,0,0,1,.34-.06c.11,0,.28.11.33.06a.55.55,0,0,0,.23-.4c.05-.28.22-.33.45-.33s.44.05.33-.34c0-.05.11-.11.23-.17a7.85,7.85,0,0,1,1.17-.22c.11-.06.28-.11.28-.17.06-.45.45-.33.67-.28a1.91,1.91,0,0,0,.62-.11c.11,0,.34,0,.11-.28-.05-.06.23-.39.51-.45a.58.58,0,0,0,.39-.22.83.83,0,0,1,.61-.23c.4-.11.79-.11,1-.55a.16.16,0,0,1,.22,0c.17.22.22.11.39.05a10.55,10.55,0,0,1,1.29-.39,2.65,2.65,0,0,1,.56-.23,22.26,22.26,0,0,1,2.58-.67c.05,0,.11-.05.22-.05a1.23,1.23,0,0,1,.22.05c.06.23.23.23.4.11a3.2,3.2,0,0,1,.67-.33c.05-.06.22-.06.22,0,.06.45.39.17.62.22a6.67,6.67,0,0,0,.61.34.63.63,0,0,1,.17-.06.12.12,0,0,0-.11-.11l-.73-.17v-.39c.17.06.23.17.39.17a5.32,5.32,0,0,0,.73.17c.34.05.34,0,.23-.28-.06-.12,0-.28,0-.34s.16-.05.22,0a1,1,0,0,1,.56.22c.28.06-.06.12,0,.23a.73.73,0,0,0,.9.45c.16-.06.39.11.56,0,.16.16.39.28.5.5.11.06.11.17.17.22.22.17.33.17.45-.05a.45.45,0,0,1,.11.61c-.11.23-.17.45.17.51.05,0,.39.11.16.33,0,0,0,.12.06.12.22,0,.28.22.28.39v1.06c0,.23-.11.45.11.56v.23a.18.18,0,0,0-.05.11,1.43,1.43,0,0,1,.05.95c0,.17-.05.11-.17.06l0-.06c-.17-.06-.28-.17-.45-.17a3.51,3.51,0,0,1,.34.39.17.17,0,0,0,.11.06c.28.17.33.28.22.56a6,6,0,0,1-1.34,2.35c-.39.45-.73,1-1.12,1.46s-.73.78-1.12,1.12a7.43,7.43,0,0,1-1.35,1.34,1.12,1.12,0,0,0-.44.56c-.23.23-.51.39-.79.62a1.41,1.41,0,0,0-.5.5,5.37,5.37,0,0,1-1.57,1.4c-.45.39-.95.67-1.4,1.07-.11,0-.17.17-.22.22l-.28.28a5.43,5.43,0,0,0-1.4,1.12,3,3,0,0,1-.34.22c-.34.23-.62.51-.9.73a5.43,5.43,0,0,0-.56.39,4.4,4.4,0,0,1-.67.51l-1.68,1c-.05,0-.17.05-.22,0s-.23.05-.28.22a.75.75,0,0,1-.28.28,10,10,0,0,1-1.23.9c-.06.11-.23.28-.23.39s.23.17.45.22c.62.06,1.29.23,1.9.34a2.16,2.16,0,0,1,.51.34s.17.22.22-.06c.28,0,.67-.06.9.17s.17.16.28,0,.22,0,.22,0c.39.28.84.16,1.23.22a12.61,12.61,0,0,1,1.91.34,11.39,11.39,0,0,1,2,.44,4.64,4.64,0,0,1,1.45.51.19.19,0,0,1,.06.17c-.06.17-.06.33-.11.5s.05.17.11.17c.34,0,.34.22.39.45a.58.58,0,0,0,.62.28c.17-.06.28.11.45,0s.22-.22.39-.22.5-.11.73.17a.29.29,0,0,0,.22.11c.34,0,.39.33.5.56.06,0,0,.17-.05.17s-.11.11-.06.22.06.17-.11.11-.28-.11-.45-.11-.22,0-.22.06,0,.16.05.16.12.06.17.17.34.34.28.51-.11.44-.45.44a1.6,1.6,0,0,0-.44.17c-.12,0-.17.06-.28.06,0,.05.16.05.16.17.17.05.17.11,0,.16s-.11.06-.22.12-.06,0-.06,0a.21.21,0,0,1,.06.11c.11.06.22.06.28.12s.22.33.39.5a2.2,2.2,0,0,0-.56-.11.65.65,0,0,0-.33-.06c-.17,0-.45.06-.4-.33a1.06,1.06,0,0,0-.22-.06.42.42,0,0,1-.45-.06c0-.11-.22-.16,0-.28s0-.11,0-.11-.06-.05-.12,0-.33.06-.56,0h-.28c-.16.06-.28.06-.28-.11,0,0-.11-.06-.16,0s-.17.11-.28.17a.23.23,0,0,1-.23-.06c-.05-.22-.28-.22-.39-.22s-.39-.06-.5-.11a.66.66,0,0,0-.73.05c-.11.06-.17,0-.28-.11-.45-.22-.9-.5-1.35-.11-.16,0-.22.11-.33-.17s-.23-.11-.39.06a1.07,1.07,0,0,1-.9.33,2.71,2.71,0,0,1-.62-.11c-.05,0-.16-.06-.22-.06a2.28,2.28,0,0,0,.22-.22c.12-.06.23-.11.28.06s.06.05.12.05a.08.08,0,0,0,0-.11c-.06-.06-.06-.22-.17-.22s-.23,0-.23,0c-.22.22-.39.16-.61.11a3.58,3.58,0,0,0-.79-.11c-.28,0-.61,0-.67-.34-.05,0-.11.06-.17.06h-.22v0H176a.25.25,0,0,0,.17-.11c-.11.28-.22.39-.56.28-.05-.06-.11,0-.22,0s-.17.06-.17-.06c-.11-.33-.22-.33-.5-.22a1.94,1.94,0,0,1-1.68,0,1.28,1.28,0,0,0-.4-.11h-1.4c-.28-.06-.61-.23-.84-.17-.56,0-1.12-.06-1.68-.11L167.22,48h-.56a4.41,4.41,0,0,1-1.51-.17,2.76,2.76,0,0,1-1.12-.5c-.17-.06-.23-.23-.17-.45a1,1,0,0,0-.45-1c-.22-.16-.45-.5-.78-.61,0,0-.06-.12,0-.17s0-.23-.12-.34c-.22-.39-.11-.61.28-.89a.81.81,0,0,0,.51-.68c0-.11.11-.39.28-.5a4.5,4.5,0,0,1,.95-.39,1,1,0,0,1,.45-.06.51.51,0,0,0,.61-.28c0-.11.17-.17.28-.22h.06c-.06,0-.06,0-.06.11-.16.11-.05.22.06.22a4,4,0,0,0,1.29-.33c.22-.11.28-.39.45-.51a.91.91,0,0,0,.11-.16c-.11-.45.33-.56.56-.84.45,0,.67-.34,1.06-.56.06-.06.28-.12.28-.06.45.45.79.06,1.07-.11a.64.64,0,0,1,.61-.17.91.91,0,0,0,.56-.06c.06,0,.06-.05.11-.11a.22.22,0,0,1-.11-.05c0,.05-.11.11-.17.11s-.11.05-.22.05c.06-.05.11-.16.17-.22a.28.28,0,0,0,.05-.17c0-.05-.05-.05-.05-.16,0,.05-.06.05-.11.11s-.17.11-.23.16a2.28,2.28,0,0,1-.11-.5c0-.11.22-.11.45-.17a4,4,0,0,1,.39-.17c-.11.17-.28.28-.17.45s.34,0,.45,0,.22-.06.22-.12.06,0,.06-.11c-.34,0-.28-.39-.5-.45a.83.83,0,0,1,.84-.39c.11,0,.16.06,0,.23,0,0-.22,0-.11.16a1.26,1.26,0,0,0,.45.12c.05,0,.11-.06.17-.17s0-.34.16-.34.23-.05.4-.11l0-.11c0-.06-.17-.11-.22-.06s-.17,0-.06-.17c.28-.67.28-.67,1-1,.06,0,.12,0,.12,0,.11-.4.56-.45.78-.73a.89.89,0,0,1,.67-.39,1,1,0,0,0,.45-.34,7.05,7.05,0,0,1,.67-.67.5.5,0,0,1,.39-.23c.12,0,.23,0,.17-.16-.05,0,0-.06,0-.06.39,0,.45-.45.73-.56s.28-.28.5-.06.17-.11.28,0,.28-.06.4-.06a1,1,0,0,0-.06-.45c-.06-.16-.06-.22.11-.33s.28-.28.39-.39c.28-.28.51-.56,1-.56.16,0,.28-.23.39-.28a.49.49,0,0,0-.11-.23c.11,0,.16,0,.22-.05a.12.12,0,0,0,.11-.12c-.05-.22.11-.22.23-.22s.28-.11.28-.28a.56.56,0,0,1,.67-.45c.17.06.28-.11.17-.22s0-.23.16-.39a4,4,0,0,0,.73-.62c.17-.11.23-.33.45-.5a5.75,5.75,0,0,0,.39-.45.41.41,0,0,1,.51-.23c.11.12.22-.22.39,0a.2.2,0,0,0,.05-.16c0-.06,0-.12-.05-.12-.28-.16-.28-.16-.17-.39a13,13,0,0,0,.9-1.23,2.12,2.12,0,0,0,.28-.73.21.21,0,0,0-.06-.11,1.26,1.26,0,0,0-.56-.17,7.07,7.07,0,0,0-2.18.56,13.34,13.34,0,0,1-1.4.45,6.45,6.45,0,0,0-1,.39c-.22.11-.5.17-.72.28s-.34.06-.45.17a14.88,14.88,0,0,1-1.35.73,1.06,1.06,0,0,0-.33.22c-.11.23-.34,0-.51.11s-.11.34-.33.34c-.06,0-.17,0-.17.06-.22.33-.67.22-.9.5-.39-.11-.56.17-.78.45-.39,0-.56.39-.9.56-.78.45-1.56,1-2.29,1.45-.95.68-1.68,1.35-2.52,2a5.69,5.69,0,0,1-1.23,1.06c-.17.06-.28.28-.4.45-.72.62-1.28,1.4-2,2.07-.44.45-1,.9-1.34,1.35a16.2,16.2,0,0,0-1.23,1.51c-.11.17-.34.34-.45.5-.56.73-1.06,1.52-1.57,2.24a15.24,15.24,0,0,0-1.4,2.69c-.17.39-.28.9-.45,1.35a1.59,1.59,0,0,0,.12,1,1.65,1.65,0,0,1,.16,1v.56c-.05.28-.11.56-.16.84a4.78,4.78,0,0,1-.34.73,2.31,2.31,0,0,1-2.52,1.23A3,3,0,0,1,156.86,50.67ZM170.3,42a.23.23,0,0,0,0-.17.05.05,0,0,0,0-.06,1,1,0,0,0-.45.06,1.15,1.15,0,0,0-.39.11c.17.06.28.17.45.17S170.13,42,170.3,42Zm.17-1.18c-.06-.11-.12-.17-.12-.22s-.11.11-.11.11a.12.12,0,0,0,.11.11Zm-.12-1.57.23-.22h.22c0,.06-.05.22-.11.22s-.22.06-.34.12Zm1-.28c-.17,0-.33.06-.56.06C171,38.8,171,38.8,171.36,39Zm-.11,1.63h-.11a.26.26,0,0,0-.11.22A.43.43,0,0,0,171.25,40.59Zm.95-2.8c0,.11,0,.22-.17.33C171.92,37.9,172,37.84,172.2,37.79Zm.11,4a1,1,0,0,1-.16-.28c-.06.06-.06.06-.12.06s.12.17.17.28A.17.17,0,0,0,172.31,41.76Zm1.07-.28-.06,0h-.5a.05.05,0,0,0-.06,0,1.07,1.07,0,0,0,.45.23C173.27,41.71,173.32,41.6,173.38,41.48ZM174.61,39a2.58,2.58,0,0,0-.39-.16c-.06.05-.06.05-.06.11V39a1.51,1.51,0,0,0,.45.06Zm.67,5.6a.22.22,0,0,1-.11-.05c-.06.05-.11.05-.11.11v.11C175.17,44.62,175.23,44.62,175.28,44.56Zm.51-.16c-.06-.06-.12-.17-.17-.23s-.11.11-.11.11.11.12.16.12S175.73,44.4,175.79,44.4Zm.28-8.35s-.06,0-.12-.11,0,.11-.16.17h.11S176,36.05,176.07,36.05Zm.89-.95c-.05,0-.11-.11-.11-.11a.4.4,0,0,0-.22.22,1.15,1.15,0,0,1,.11.17C176.85,35.21,176.91,35.21,177,35.1Zm2.35-1.62c0-.06-.11-.06-.16-.12-.06.12-.06.23-.12.34a.8.8,0,0,1,.12.17A1.26,1.26,0,0,1,179.31,33.48Zm1.8-2-.06-.12c-.06,0-.17,0-.17,0a.71.71,0,0,0-.28.29v0C180.77,31.63,180.94,31.63,181.11,31.52ZM182.9,45.4c-.23-.16-.28-.56-.62-.61-.05,0-.05,0-.11.05-.17.23.06.68.5.68Zm-.23.56a.41.41,0,0,0-.11-.22s-.11,0-.11.06a1,1,0,0,0,.17.33A.47.47,0,0,0,182.67,46Zm1.46,2.47c.22-.23.11-.34,0-.39-.28-.12-.5-.45-.84-.17-.06.05-.11,0-.28,0,.06,0,0,0-.06.05l.12.12a.61.61,0,0,1,.5.28,1.87,1.87,0,0,0,.45.22C184.07,48.6,184.07,48.43,184.13,48.43Zm-.9-24.59c0-.05-.11-.11-.11-.16s-.17.05-.11.11.11.11.17.22C183.18,24,183.29,23.84,183.23,23.84Zm2.24,24.64c-.11,0-.16-.11-.28-.11s-.11.06-.11.11.06.17.11.17S185.36,48.6,185.47,48.48ZM186,27.65c-.17,0-.17,0-.17,0a.26.26,0,0,0-.22.17h0C185.75,27.82,185.81,27.77,186,27.65Zm.28,20.05c-.17-.11-.23-.17-.28-.17s-.11.11-.11.17a.18.18,0,0,0,.16.06A.41.41,0,0,0,186.26,47.7Zm1.12-1.06c-.28-.06-.51-.17-.79-.23a.19.19,0,0,1-.16-.11c0-.11,0-.17.11-.28a.16.16,0,0,1,.22,0,2.18,2.18,0,0,0,.62.39.23.23,0,0,0,.11.23h-.11Zm-.62.67a.05.05,0,0,1,0-.06c-.06.06-.12.06-.17.11s.05.06.11.12S186.76,47.36,186.76,47.31Zm0-28.73h.22v.06h-.11C186.76,18.64,186.71,18.64,186.71,18.58Zm1.17,1.23s0,0-.11,0l-.17.16c.06,0,.11.06.17.06S187.83,19.87,187.88,19.81Zm-.11,1.85c-.06,0-.06-.06-.11-.06a.21.21,0,0,0-.06.12h.11Zm.39,4.2c0-.05-.11-.05-.11-.11a.21.21,0,0,1-.11.06c.05,0,.05.11.11.11A.21.21,0,0,1,188.16,25.86Zm.67-5.49c.06,0-.05-.05-.05-.05a1.39,1.39,0,0,1-.28.16.9.9,0,0,0,.28.17C188.78,20.54,188.83,20.43,188.83,20.37Zm.51,9.19c0-.06,0-.06-.06-.12a.25.25,0,0,1-.11.17h.11A.05.05,0,0,0,189.34,29.56Zm1.12-1.35c-.11-.05-.17-.11-.28-.17l-.11.12c.11.05.16.11.22.11A.2.2,0,0,0,190.46,28.21Zm.28-8.06v-.06a.43.43,0,0,1,.45.34A4.8,4.8,0,0,0,190.74,20.15Zm.33,1.79a.18.18,0,0,0,0-.11h-.11v.11Zm.23,3.87c-.11-.06-.11-.12-.17-.17a.11.11,0,0,0-.11.11c0,.06,0,.11.11.22C191.24,25.81,191.24,25.81,191.3,25.81Z" fill="#231f20"/>
        <path d="M192.14,48.43c-.06.17-.06.28-.28.22h-.11c.33-.28-.17-.22-.12-.45s-.22-.44-.28-.67-.39-.67-.16-1.12a1.24,1.24,0,0,0,0-.89,3.76,3.76,0,0,1,.11-1.18,1.7,1.7,0,0,0,.11-.39,7.82,7.82,0,0,1,.22-1.57,10.73,10.73,0,0,1,.28-2.24,2.63,2.63,0,0,0,.17-.78.41.41,0,0,1,.23.11v-.11h-.23c.06-.34,0-.79.39-1,.06,0,0-.11,0-.22-.16-.34-.16-.45.12-.67s.39-.28.16-.51v-.22c.23-.05.23-.22.12-.45s0-.22,0-.39a15.93,15.93,0,0,0,.39-1.68,7.56,7.56,0,0,1,.39-1.06c.06,0,.17-.12.11-.17a1.77,1.77,0,0,1,.28-1.18,8.06,8.06,0,0,1,.67-1.57,7.09,7.09,0,0,1,.23-.78c.05-.11.11-.28.22-.34a1,1,0,0,0,.11-.44,3,3,0,0,1,.28-.84c.28-.56.62-1.18,1-1.74a4.45,4.45,0,0,1,.56-1,1.41,1.41,0,0,1,1.28-.56h.23a1.59,1.59,0,0,1,1.29.34,4.29,4.29,0,0,0,.95.56,1.4,1.4,0,0,1,.89,1.12A6.19,6.19,0,0,1,201.6,28c0,.17,0,.28-.17.34l-.11.11a8.42,8.42,0,0,1-.95,1.57c-.28.5-.5,1.12-.84,1.68-.34.78-.62,1.51-.95,2.3a8.16,8.16,0,0,0-.56,1.4,7.64,7.64,0,0,1-.34,1.23c-.11.33-.22.73-.33,1.06a3.58,3.58,0,0,0-.17.84c-.06.23-.11.45-.17.67-.22.4-.22.84-.56,1.12-.06.12.06.34.11.51a1.24,1.24,0,0,1-.05.45,20.46,20.46,0,0,0-.51,2.52,4.34,4.34,0,0,1-.33.78c-.12.17-.17.34,0,.5a.69.69,0,0,1,0,.45,1.19,1.19,0,0,0-.17.45c0,.22.05.45-.34.39a1.2,1.2,0,0,0-.11.34,1.51,1.51,0,0,1-.5,1c-.06,0-.06.05-.12.11-.22.45-.67.56-1.06.78h-.28c-.17,0-.39-.17-.56,0h-.11C192.31,48.65,192.25,48.54,192.14,48.43Zm.45-4.65c0-.05-.06-.05-.12-.11a.47.47,0,0,0-.22.22.41.41,0,0,0,.22.11C192.53,44,192.53,43.89,192.59,43.78Z" fill="#231f20"/>
        <path d="M200.37,50.44c-.34-.22-.73-.33-.9-.67-.11-.17-.22-.22-.22-.33a3,3,0,0,1-.22-.34c-.28-.11-.28-.39-.34-.67s-.28-.62-.39-.9-.23-.33,0-.56a1.51,1.51,0,0,0,0-.5.81.81,0,0,1,.45-.73c.17-.05.23-.17.23-.39a7.9,7.9,0,0,1,.67-1.46c0-.11.11-.22.17-.33,0-.45.28-.73.39-1.12.11-.17.11-.4.28-.51s.28-.22.33-.28-.11-.28.06-.39S201,41,201,41s.06-.22.23-.17,0-.05,0-.17a.94.94,0,0,1,.17-.5,12.88,12.88,0,0,1,.67-1.34A31,31,0,0,1,204,35.94a7.79,7.79,0,0,0,.73-1.18c.45-.56.78-1.23,1.23-1.79.17-.22.28-.5.67-.5a.21.21,0,0,0,.17-.34c-.17-.17.06-.33.06-.44.33-.17.44-.51.67-.73.33-.45.67-.9,1-1.35s.62-.84.9-1.23l.61-.95a.35.35,0,0,0,.11-.45c0-.06.06-.28.12-.28a8.65,8.65,0,0,0,1.17-1.34c.45-.45.84-.9,1.29-1.35a2.12,2.12,0,0,1,.9-.28,4.56,4.56,0,0,1,2.46.17,4.94,4.94,0,0,1,1.06.56h.06c.11.56.62.45.9.67.22.06.39,0,.44-.22.06-.06.17-.22.23.05s.11.17.22.06.34-.11.45-.33.22-.12.39.11.06.16.28.11a3.1,3.1,0,0,1,1.12-.45h.17a.56.56,0,0,1,.28-.22c0,.11.11.22.17.39.05,0,0,.06.05.06v0l.06,0c.11-.57.11-.57.62-.68.95-.28,1.9-.56,2.8-.78a5.71,5.71,0,0,1,2.57.05c.23.06.45.06.62.12.5.16.89.33,1,.89,0,.11.11.17.22.23a2.12,2.12,0,0,1,.45,2,0,0,0,0,0,0,.05A1.43,1.43,0,0,1,229,27.82a1.85,1.85,0,0,0-.73.39,1.94,1.94,0,0,1-1.46.28h-.17a6.73,6.73,0,0,1-1.17.23c-.45.05-1,.05-1.46.11s-1.12.17-1.68.28a.61.61,0,0,0-.22.05,1,1,0,0,0-1.12.17c-.28.17-.67,0-.95.06a2.38,2.38,0,0,1-.84.22,16,16,0,0,0-1.63.23c-.45.05-.89.16-1.29.22h-.39c-.28-.06-.39.06-.56.22A18.46,18.46,0,0,1,214,31.91l-1.34,1.51v.11a.47.47,0,0,0,.28-.05c.11,0,.17,0,.28.16s.11.06.17,0c.11-.39.22-.45.61-.39h.34l.84-.17c.06,0,.11,0,.17,0,.22.28.56.23.89.28a2.26,2.26,0,0,1,1.35.62c0,.06,0,.11.11.22a2.52,2.52,0,0,0,.39.68,1.24,1.24,0,0,1,.23,1.23,9,9,0,0,1-.4,1.17.77.77,0,0,1-.5.45,7.22,7.22,0,0,1-1.9.45,1.87,1.87,0,0,0-.51.11,16.15,16.15,0,0,1-2.41.11c-.67.06-1.4.06-2.07.06a4.17,4.17,0,0,1-.84-.17c-.39-.17-.61-.17-.84.11-.28.45-.56,1-.89,1.4-.17.34-.4.56-.56.9-.4.67-.79,1.34-1.24,2a4.28,4.28,0,0,1-.39.67c-.05,0,0,.11,0,.22a.39.39,0,0,0,.23,0c1.28-.34,2.52-.73,3.75-1.18a9.56,9.56,0,0,1,1.4-.45c.73,0,1.34-.45,2.07-.56a4.92,4.92,0,0,1,.9-.22c.11-.06.33,0,.44,0h.17c.11-.34.28-.34.51-.23,0,.06.16.06.16,0,.23-.33.62-.33,1-.39a11.43,11.43,0,0,1,1.35-.39c.61-.17,1.23-.28,1.84-.45s1-.22,1.46-.28A10.67,10.67,0,0,1,223,39c.23-.17.68,0,.9-.28a.93.93,0,0,1,.67-.17.79.79,0,0,0,.23.17c0,.06.16.11.22.11.22-.22.45.06.67.11a2.3,2.3,0,0,1,.62.34c.28.11.45.22.5.5,0,.06.11.12.11.12.28-.17.34,0,.4.22s.05.22.05.28.17.28.11.34a.64.64,0,0,1-.33.16c-.34-.05-.34.12-.39.34s-.06.22-.12.28-.44.39.12.39a.05.05,0,0,1,.05.06s0,.11-.05.11c-.28,0-.4.22-.56.34s-.51.16-.79.16-.45,0-.5.12c-.23.5-.28.11-.34-.06s-.28-.22-.45-.34v0a1.56,1.56,0,0,0-.28.51c-.11.33-.16.33-.44.45s-.84.22-1.29.39a1,1,0,0,1-.45.06l-2.07.67a11.31,11.31,0,0,0-1.4.22,5.06,5.06,0,0,0-1.29.45,2.84,2.84,0,0,1-.9.28c-.61.22-1.28.39-2,.61a8.15,8.15,0,0,0-1.45.56c-.56.34-1.23.45-1.79.79a10.63,10.63,0,0,1-1.12.56c-.34.11-.56.45-1,.39a.27.27,0,0,0-.17.06,9.78,9.78,0,0,1-2.18.89.19.19,0,0,1-.12.06,8,8,0,0,1-2.52.95c-.16,0-.22.06-.39.17a4.7,4.7,0,0,1-2,.39A1.6,1.6,0,0,1,200.37,50.44Zm.22-7.28s0-.11-.05-.11-.06.06-.11.11,0,.06.11.12S200.59,43.22,200.59,43.16Zm2.24-1.45c0-.11-.05-.23-.11-.23a.08.08,0,0,0-.11,0c0,.12,0,.23.06.28A.45.45,0,0,1,202.83,41.71Zm1-1.85c0-.22-.17-.62-.28-.62a.51.51,0,0,0-.23.28.49.49,0,0,0,.06.4s.17,0,.22,0a.47.47,0,0,0,.23,0Zm19.15-.5c-.06-.06-.06-.06-.06-.12a.16.16,0,0,1-.11.06v.17C222.83,39.41,222.88,39.41,222.94,39.36Z" fill="#231f20"/>
        <path d="M229.38,48.93c-.28,0-.51,0-.79-.11-.5-.17-1.06-.22-1.56-.39a.66.66,0,0,1-.34-.06c-.28-.17-.56-.22-.9-.39-.11-.06-.33,0-.44-.22,0-.06-.12-.06-.17-.12-.4-.16-.79-.33-1.12-.44s-.45-.51-.67-.73c-.12-.06,0-.28,0-.51a.29.29,0,0,1,.22-.39.25.25,0,0,0,.17-.33c-.11-.45-.23-.9-.79-1.07l-.11-.17c.06,0,.11-.22.17-.22a.86.86,0,0,1,.39.11,3.25,3.25,0,0,1,.73.23c.17.05.28.05.34-.12a.55.55,0,0,0-.06-.27c0-.06-.06-.17-.06-.23h.28a13.51,13.51,0,0,0,2.47.9h.17a6.88,6.88,0,0,1,2.4.05,9.44,9.44,0,0,0,2.19-.05c.5-.06,1.06-.06,1.62-.17a12.26,12.26,0,0,0,1.34-.28,5.51,5.51,0,0,0,1-.11c.61-.11,1.23-.34,1.79-.45a14.68,14.68,0,0,0,2.13-.67,12.25,12.25,0,0,0,1.79-.73,9.43,9.43,0,0,1,1.34-.56,10.25,10.25,0,0,0,1.68-1,12.3,12.3,0,0,0,1.4-1.18,5,5,0,0,0,.79-1.28.85.85,0,0,0-.12-.28v-.23a.4.4,0,0,0,.12-.22c0-.06,0-.11,0-.17s-.12,0-.12.06v.33a2.15,2.15,0,0,0-.78-.56c-.22-.11-.39-.16-.11-.33a.23.23,0,0,0,.11-.23c.06,0,.06,0,.11-.11s-.11-.11-.17-.06-.33.17-.5.23-.17.17-.33,0a2.07,2.07,0,0,0-.56-.16,21.45,21.45,0,0,0-2.8-.62c-.9-.17-1.74-.28-2.58-.45h-.11a6.57,6.57,0,0,0-2-.39c-.06,0-.17,0-.22-.06s-.34-.16-.51-.16-.39,0-.61-.17c-.06-.11-.28-.11-.45-.11a10.17,10.17,0,0,0-1.35-.06,6.92,6.92,0,0,0-1.79.11c0,.06-.22,0-.28,0a3.1,3.1,0,0,1-1.51-.68s0,0,0,0c0-.17.11-.28.11-.39s-.22-.23-.16-.4,0-.28-.17-.22-.28.06-.23-.17V32.3a3.55,3.55,0,0,0,0-1.34s-.05-.06,0-.06a2.23,2.23,0,0,1,.23-.39c-.17-.11-.23-.23-.06-.39a3.51,3.51,0,0,0,.34-.45c.11-.06.22-.17.39-.28s.22-.23.34-.28.39-.23.61-.39a.44.44,0,0,0,.39-.12,5.71,5.71,0,0,1,2-1,13.09,13.09,0,0,1,1.85-.9c.84-.39,1.73-.73,2.52-1.12a3.88,3.88,0,0,0,1-.45c.72-.44,1.56-.67,2.35-1.06.39-.17.78-.39,1.23-.56a22.21,22.21,0,0,1,2.24-1.07,8.06,8.06,0,0,0,1.62-.78c.62-.34,1.18-.45,1.74-.78a15.21,15.21,0,0,0,1.62-.79,6.45,6.45,0,0,0,1-.39A23.51,23.51,0,0,0,254,18.19a1.52,1.52,0,0,1,1.9,0,2.13,2.13,0,0,1,.67.73c0,.23.23.39.34.56a2.15,2.15,0,0,1,.39,1.79,2.58,2.58,0,0,1-1.68,2.3c-1.06.45-2.24.84-3.36,1.29-.78.22-1.51.5-2.24.78a16.73,16.73,0,0,0-2.52,1.07c-.78.39-1.57.61-2.35.95-.39.17-.78.5-1.18.67a5.63,5.63,0,0,1-1.06.45c-.06.11-.23.11-.34.17a7.16,7.16,0,0,1-1.12.5c-.44.06-.73.39-1.12.5a.26.26,0,0,0,.06.17.55.55,0,0,0,.28.11,7.06,7.06,0,0,0,2.13.45,7.45,7.45,0,0,1,2.18.51,5.77,5.77,0,0,0,1.35.28,3,3,0,0,1,1,.33,5.1,5.1,0,0,1,1,.39c.16.06.33.17.55.28a1.74,1.74,0,0,1,.45.23c.12.17.12.39.28.56s.34.11.45.33a5.85,5.85,0,0,1,.56,1.4c.06.4.34.62.45,1a.41.41,0,0,1,.11.23c-.17.16-.17.28.06.28.05,0,.05.17.05.22a2.94,2.94,0,0,1-.11,1.23c0,.11,0,.28,0,.34.5.39.11.84,0,1.17a10.29,10.29,0,0,1-.84,1.85,6,6,0,0,1-.78,1c-.56.56-1.12,1.07-1.68,1.63a11.67,11.67,0,0,1-2.08,1.34c-.16,0-.33.17-.44.23a27,27,0,0,1-2.69,1.34c-1,.28-1.91.73-2.86,1.06a8.83,8.83,0,0,1-1.73.34c-.51.17-1.07.17-1.63.34a14.22,14.22,0,0,1-2,.28,11.06,11.06,0,0,1-1.9.22c-.45,0-.9.11-1.34.11A10.6,10.6,0,0,1,229.38,48.93Zm-.62-3.19c-.06,0-.11-.05-.17-.05h-.11c0,.05,0,.11.06.11a.2.2,0,0,0,.16.05A.21.21,0,0,1,228.76,45.74Zm2,.39V46c-.11-.06-.22-.06-.33-.11a.05.05,0,0,1-.06.05,1.38,1.38,0,0,0,.28.23C230.67,46.19,230.72,46.19,230.72,46.13ZM232.91,29a.19.19,0,0,0-.12-.06,3,3,0,0,1-.39-.17h-.17c.06.06.06.11.12.17a1.87,1.87,0,0,1,.44.11C232.79,29.11,232.85,29.05,232.91,29ZM234,46c-.23,0-.34-.05-.5-.05s-.34-.17-.4.05a1.7,1.7,0,0,0,.45.17Zm1.57-.22a.33.33,0,0,0-.23.06v.05h.23Z" fill="#231f20"/>
      </g>
    </g>
  </g>
</svg>
